<svg preserveAspectRatio="none" width="100%" height="100%" overflow="visible" style="display: block;" viewBox="0 0 205.676 57.0654" fill="none" xmlns="http://www.w3.org/2000/svg">
<g id="Group">
<path id="Vector" d="M202.818 5.76308H202.359C202.306 5.76308 202.262 5.80689 202.262 5.86021V6.51341C202.262 6.56674 202.306 6.61054 202.359 6.61054H202.835C202.934 6.61054 203.016 6.58007 203.079 6.51532C203.142 6.44676 203.172 6.33821 203.172 6.18586C203.172 6.03351 203.136 5.91925 203.062 5.8564C202.993 5.79356 202.913 5.76308 202.818 5.76308Z" fill="var(--fill-0, white)"/>
<path id="Vector_2" d="M204.444 5.0718C204.225 4.8528 203.962 4.68141 203.66 4.56143C203.355 4.43574 203.025 4.3729 202.669 4.3729C202.313 4.3729 201.976 4.43574 201.671 4.56143C201.372 4.68141 201.113 4.84899 200.894 5.06419C200.675 5.27939 200.504 5.53076 200.384 5.81833C200.264 6.10589 200.203 6.41821 200.203 6.75338C200.203 7.08856 200.264 7.39516 200.384 7.68844C200.504 7.976 200.675 8.23119 200.894 8.45019C201.113 8.66539 201.374 8.83488 201.671 8.96057C201.976 9.08055 202.307 9.14149 202.669 9.14149C203.136 9.14149 203.557 9.03865 203.934 8.83488C204.311 8.63111 204.606 8.35116 204.821 7.99504C205.04 7.63321 205.151 7.22186 205.151 6.7629C205.151 6.42773 205.088 6.11541 204.962 5.82785C204.842 5.54028 204.669 5.28891 204.444 5.07371V5.0718ZM203.999 8.43306H203.353C203.303 8.43306 203.258 8.4083 203.231 8.36449L202.633 7.40087C202.606 7.35898 202.561 7.33232 202.511 7.33232H202.405C202.325 7.33232 202.262 7.39707 202.262 7.47515V8.28641C202.262 8.3664 202.197 8.42924 202.119 8.42924H201.519C201.439 8.42924 201.376 8.36449 201.376 8.28641V5.21654C201.376 5.10799 201.464 5.02039 201.572 5.02039H202.924C203.143 5.02039 203.338 5.07752 203.505 5.19369C203.673 5.30795 203.804 5.45459 203.898 5.6336C203.997 5.81071 204.046 5.99544 204.046 6.18397C204.046 6.31918 204.02 6.45059 203.968 6.57628C203.92 6.70197 203.856 6.81623 203.772 6.92097C203.717 6.98762 203.654 7.04475 203.587 7.09617C203.528 7.13997 203.519 7.22376 203.557 7.28661L204.124 8.21024C204.183 8.30546 204.115 8.42924 204.002 8.42924L203.999 8.43306Z" fill="var(--fill-0, white)"/>
<path id="Vector_3" d="M20.2098 19.1986C21.0896 18.6082 21.6838 17.7112 21.8856 16.6695C22.0875 15.6278 21.8609 14.569 21.2515 13.6911C20.6611 12.8417 19.7584 12.2609 18.7701 12.0971C17.7664 11.8971 16.74 12.1047 15.8754 12.6855C14.9956 13.2759 14.4014 14.1748 14.1995 15.2146C13.9996 16.2182 14.209 17.2485 14.788 18.1131C15.3764 18.9891 16.2715 19.5832 17.317 19.787C17.5646 19.8365 17.8141 19.8613 18.0616 19.8613C18.8158 19.8613 19.5585 19.6347 20.2079 19.1986H20.2098Z" fill="var(--fill-0, white)"/>
<path id="Vector_4" d="M33.1996 23.0302C32.7292 22.7274 32.1674 22.6264 31.6152 22.7445C31.0629 22.8626 30.5925 23.1863 30.2916 23.6529C27.1456 28.5491 21.44 30.9981 15.7516 29.8879C12.0095 29.1851 8.7682 27.0637 6.62577 23.9119C4.48714 20.7696 3.69682 16.9875 4.40144 13.2549C5.09654 9.36807 7.41609 5.93637 10.7754 3.83202C11.7314 3.21309 12.0152 1.91811 11.4058 0.946868L11.3791 0.906872C11.0516 0.455531 10.6535 0.179395 10.126 0.0384707L10.0251 0.0194256C9.79657 -0.00914019 9.53758 -0.00533164 9.29762 0.0251386C9.0272 0.061322 8.79867 0.129883 8.61585 0.236529C4.32907 2.89506 1.3049 7.33609 0.314621 12.4303C-1.54597 22.4417 5.03751 32.1084 14.9917 33.9747C16.1496 34.1937 17.3075 34.3003 18.452 34.3003C24.6032 34.3003 30.3944 31.2286 33.8223 25.9363C34.4489 24.9574 34.1689 23.6529 33.1977 23.0283L33.1996 23.0302Z" fill="var(--fill-0, white)"/>
<path id="Vector_5" d="M7.83315 11.8171C7.62748 12.3332 7.6389 12.9217 7.86362 13.432C8.08834 13.9405 8.49588 14.3252 9.01006 14.5194C9.52425 14.7251 10.1127 14.7156 10.6231 14.4909C11.1316 14.2662 11.5181 13.8586 11.7105 13.3425C12.2209 12.0304 13.0797 10.9544 14.211 10.2193C17.2923 8.10165 21.5428 8.91102 23.6872 12.0266C25.8087 15.1098 25.0031 19.3661 21.8818 21.5219C20.9068 22.2189 19.7889 22.6245 18.6539 22.695L18.6063 22.6988C17.4446 22.8492 16.639 23.7957 16.6924 24.9517L16.6981 25.0107C16.8447 26.1381 17.7341 26.9246 18.85 26.9246C18.8938 26.9246 18.9395 26.9246 18.9853 26.9208C20.7487 26.7894 22.5636 26.1438 24.2471 25.045C29.2804 21.5885 30.583 14.6927 27.1437 9.66325C25.5211 7.36656 23.2244 5.81067 20.5088 5.16699H20.5011C17.4789 4.44332 14.35 4.9994 11.9143 6.6905C10.0365 8.01405 8.66156 9.73752 7.83125 11.8171H7.83315Z" fill="var(--fill-0, white)"/>
<path id="Vector_6" d="M205.448 5.62217C205.295 5.27747 205.084 4.97848 204.812 4.7271C204.539 4.47001 204.219 4.27195 203.854 4.13103C203.486 3.9901 203.088 3.91964 202.66 3.91964C202.231 3.91964 201.833 3.9901 201.466 4.13103C201.104 4.27195 200.79 4.47191 200.523 4.7271C200.256 4.97848 200.049 5.27747 199.902 5.62217C199.756 5.96686 199.683 6.34202 199.683 6.74575C199.683 7.14948 199.756 7.53036 199.902 7.87696C200.049 8.22166 200.256 8.52445 200.523 8.77964C200.79 9.03673 201.104 9.23479 201.466 9.37571C201.831 9.51664 202.229 9.58711 202.66 9.58711C203.09 9.58711 203.486 9.51664 203.854 9.37571C204.219 9.23479 204.539 9.03483 204.812 8.77964C205.084 8.52255 205.295 8.22166 205.448 7.87696C205.6 7.53227 205.676 7.1552 205.676 6.74575C205.676 6.33631 205.6 5.96876 205.448 5.62217ZM204.819 7.99313C204.604 8.34925 204.309 8.62919 203.932 8.83296C203.555 9.03673 203.134 9.13957 202.667 9.13957C202.306 9.13957 201.974 9.07863 201.669 8.95865C201.37 8.83296 201.112 8.66347 200.892 8.44828C200.673 8.22927 200.502 7.97409 200.382 7.68652C200.262 7.39325 200.201 7.08093 200.201 6.75147C200.201 6.42201 200.262 6.10397 200.382 5.81641C200.502 5.52885 200.673 5.27747 200.892 5.06228C201.112 4.84708 201.372 4.67949 201.669 4.55951C201.974 4.43382 202.306 4.37098 202.667 4.37098C203.029 4.37098 203.353 4.43382 203.658 4.55951C203.96 4.67949 204.223 4.85089 204.442 5.06989C204.667 5.28509 204.84 5.53647 204.96 5.82403C205.086 6.11159 205.149 6.42391 205.149 6.75909C205.149 7.21995 205.038 7.6313 204.819 7.99123V7.99313Z" fill="var(--fill-0, white)"/>
<path id="Vector_7" d="M52.6282 21.1544C52.0245 20.7316 51.2494 20.3603 50.3258 20.0479C49.4098 19.7394 48.309 19.4271 47.054 19.1186C46.2999 18.9301 45.66 18.7568 45.1554 18.6044C44.6602 18.454 44.2508 18.2864 43.9442 18.1036C43.6509 17.9303 43.4357 17.7227 43.3081 17.4865C43.1786 17.2504 43.1139 16.9514 43.1139 16.601C43.1139 15.7497 43.4205 15.148 44.0527 14.7595C44.7021 14.3614 45.5191 14.1596 46.4808 14.1596C48.2538 14.1596 49.9639 14.7556 51.5636 15.9307C51.6665 16.0068 51.7884 16.0468 51.9159 16.0468C52.1045 16.0468 52.274 15.9592 52.3806 15.8069L53.5804 14.1234C53.7575 13.8739 53.7118 13.533 53.4756 13.3483C52.5882 12.6513 51.5827 12.1009 50.4877 11.7143C49.265 11.282 47.9282 11.0649 46.517 11.0649C45.4848 11.0649 44.5117 11.1982 43.6223 11.463C42.7273 11.7296 41.9369 12.1276 41.2723 12.6475C40.6039 13.1712 40.0725 13.8168 39.6955 14.5709C39.3184 15.3251 39.1261 16.2011 39.1261 17.1704C39.1261 17.9036 39.2518 18.5378 39.4974 19.0558C39.745 19.5776 40.1449 20.0403 40.6877 20.4326C41.219 20.8192 41.916 21.162 42.7596 21.4515C43.5957 21.739 44.6069 22.038 45.7629 22.3446C47.3587 22.7674 48.549 23.1597 49.2974 23.5101C49.9925 23.8358 50.3467 24.3633 50.3467 25.0774C50.3467 25.8601 50.0382 26.4448 49.4022 26.8695C48.7547 27.3018 47.8558 27.5189 46.7303 27.5189C45.6048 27.5189 44.506 27.3132 43.4376 26.9057C42.4816 26.5419 41.4989 26.0163 40.5182 25.3421C40.4191 25.2755 40.3049 25.2393 40.1887 25.2393C39.9907 25.2393 39.8078 25.3383 39.7031 25.5059L39.5774 25.7078L39.2556 26.2201L38.8518 26.8618L38.848 26.8676L38.8442 26.8733C38.7471 27.0028 38.65 27.157 38.5471 27.3475C38.4138 27.5912 38.4957 27.9074 38.6519 28.0407C38.73 28.1054 38.7833 28.1435 38.8518 28.1911C38.8899 28.2178 38.9299 28.2463 38.9794 28.2806C39.2651 28.4901 39.5374 28.6729 39.8116 28.8348C40.3734 29.17 40.9867 29.4652 41.6303 29.7146C41.8436 29.7965 42.0626 29.8746 42.2835 29.947C43.7785 30.4364 45.2982 30.6859 46.8027 30.6859C49.1298 30.6859 51.0037 30.1526 52.3673 29.1033C53.7442 28.0426 54.4412 26.5819 54.4412 24.7575C54.4412 23.9519 54.2907 23.2511 53.9955 22.6722C53.7004 22.0933 53.2395 21.5829 52.6282 21.1544Z" fill="var(--fill-0, white)"/>
<path id="Vector_8" d="M67.9909 28.513L67.9414 28.3282L67.7605 27.6407L67.6595 27.2523L67.5853 26.9666C67.5662 26.8942 67.5529 26.839 67.5396 26.7857C67.5205 26.7057 67.5015 26.6333 67.471 26.5229C67.3891 26.2391 67.1663 26.0506 66.9168 26.0506C66.8445 26.0506 66.7721 26.0658 66.6978 26.0963C66.5702 26.1477 66.5131 26.1725 66.4693 26.1915C66.3817 26.2277 66.3531 26.241 65.9837 26.3819C65.5171 26.5629 65.0182 26.6543 64.5021 26.6543C63.986 26.6543 63.6013 26.5229 63.2699 26.2544C62.9557 25.9992 62.7729 25.5669 62.7291 24.9708V14.9746C62.7291 14.8661 62.8167 14.7785 62.9252 14.7785H66.0694C66.4464 14.7785 66.755 14.4719 66.755 14.0929V12.0209C66.755 11.6439 66.4484 11.3354 66.0694 11.3354H62.9252C62.8167 11.3354 62.7291 11.2478 62.7291 11.1392V5.89261C62.7291 5.51554 62.4225 5.20704 62.0435 5.20704H59.1203C58.7432 5.20704 58.4347 5.51364 58.4347 5.89261V11.1392C58.4347 11.2478 58.3471 11.3354 58.2385 11.3354H56.6826C56.3056 11.3354 55.9971 11.642 55.9971 12.0209V14.0929C55.9971 14.47 56.3037 14.7785 56.6826 14.7785H58.2385C58.3471 14.7785 58.4347 14.8661 58.4347 14.9746V26.2201C58.4347 27.0066 58.5604 27.6864 58.806 28.2463C59.0536 28.8081 59.4002 29.2728 59.8363 29.6232C60.2667 29.9717 60.7714 30.2345 61.3351 30.4078C61.895 30.5792 62.4967 30.6668 63.1252 30.6668C64.1307 30.6668 65.0905 30.5126 65.9799 30.2117L66.2408 30.1222C66.9473 29.8822 67.3358 29.7508 67.7776 29.5299C67.8766 29.4804 68.1909 29.2823 68.069 28.8119C68.0366 28.6882 68.0157 28.6082 67.9909 28.5149V28.513Z" fill="var(--fill-0, white)"/>
<path id="Vector_9" d="M85.2085 13.9633C84.3496 13.0682 83.3098 12.3465 82.1158 11.8151C80.9179 11.2838 79.5658 11.0134 78.0956 11.0134C76.6254 11.0134 75.2733 11.2838 74.0754 11.8151C72.8814 12.3465 71.8397 13.0682 70.9827 13.9633C70.1238 14.8584 69.4554 15.9191 68.9983 17.1132C68.5394 18.3072 68.307 19.5717 68.307 20.8743C68.307 22.1769 68.5394 23.4414 68.9983 24.6355C69.4573 25.8315 70.1181 26.8922 70.9656 27.7854C71.813 28.6804 72.8471 29.4041 74.0411 29.9335C75.239 30.4648 76.6025 30.7352 78.0975 30.7352C79.5924 30.7352 80.9198 30.4648 82.1177 29.9335C83.3117 29.4041 84.3515 28.6804 85.2104 27.7854C86.0693 26.8903 86.7358 25.8315 87.1948 24.6355C87.6537 23.4414 87.8861 22.175 87.8861 20.8743C87.8861 19.5736 87.6537 18.3072 87.1948 17.1132C86.7358 15.9191 86.0674 14.8584 85.2085 13.9633ZM83.0299 23.2948C82.7556 24.028 82.3728 24.6774 81.8929 25.2259C81.4149 25.7724 80.8455 26.2047 80.1961 26.5113C79.5505 26.8179 78.844 26.9722 78.0937 26.9722C77.3434 26.9722 76.6368 26.8179 75.9912 26.5113C75.3418 26.2047 74.7705 25.7762 74.2944 25.243C73.8145 24.7079 73.4336 24.0642 73.1594 23.331C72.8852 22.5978 72.7443 21.7846 72.7443 20.9105C72.7443 20.0364 72.889 19.2537 73.1766 18.5091C73.4622 17.7645 73.8526 17.1074 74.3325 16.559C74.8105 16.0124 75.3818 15.5744 76.0312 15.2545C76.6768 14.9383 77.37 14.7765 78.0956 14.7765C78.8212 14.7765 79.5524 14.9307 80.198 15.2373C80.8455 15.5439 81.4168 15.9762 81.8948 16.5228C82.3747 17.0713 82.7575 17.7264 83.0318 18.471C83.3079 19.2175 83.4469 20.025 83.4469 20.8743C83.4469 21.7237 83.3079 22.5616 83.0318 23.2948H83.0299Z" fill="var(--fill-0, white)"/>
<path id="Vector_10" d="M99.8304 11.1525C98.3754 11.1525 97.1109 11.5696 95.8483 12.4646L95.8331 12.4761C95.2998 12.855 94.7952 13.2131 94.1001 13.971L94.0753 13.9996C94.0201 14.0605 93.9725 14.1138 93.902 14.1138C93.7535 14.1138 93.7344 13.9234 93.723 13.632V11.8705C93.723 11.5029 93.4183 11.3353 93.1365 11.3353H90.3522C90.0704 11.3353 89.7866 11.5258 89.7866 11.8876V29.6422C89.7866 29.8155 89.8323 30.3773 90.4189 30.3773H93.3688C93.7992 30.3773 94.001 30.1545 94.001 29.6765V19.4918C94.001 18.9453 94.1515 18.4178 94.4352 17.9664C94.9018 17.2218 95.5455 16.6124 96.3434 16.1573C97.4232 15.5421 98.4459 15.1327 99.9237 15.1327C100.305 15.1327 100.385 14.807 100.385 14.5328V11.7905C100.385 11.4991 100.289 11.1525 99.8304 11.1525Z" fill="var(--fill-0, white)"/>
<path id="Vector_11" d="M119.522 17.0427C119.074 15.8696 118.417 14.8279 117.572 13.9462C116.726 13.0644 115.69 12.3484 114.496 11.8171C113.298 11.2857 111.946 11.0153 110.476 11.0153C109.006 11.0153 107.612 11.2781 106.404 11.798C105.195 12.3179 104.148 13.0416 103.291 13.9481C102.434 14.8527 101.76 15.9191 101.289 17.1132C100.819 18.3072 100.581 19.5851 100.581 20.9124C100.581 22.2398 100.819 23.5119 101.289 24.6926C101.76 25.8772 102.434 26.9303 103.291 27.8235C104.15 28.7185 105.197 29.4346 106.404 29.9545C107.612 30.4744 108.97 30.7372 110.44 30.7372C112.439 30.7372 114.218 30.2782 115.73 29.3717C117.097 28.5509 118.132 27.4997 118.8 26.2466C118.88 26.0962 118.888 25.9191 118.821 25.7629C118.754 25.6048 118.621 25.4868 118.455 25.4392L118.023 25.3154L117.49 25.1611C117.366 25.1249 117.242 25.0907 117.118 25.0564C116.873 24.9878 116.619 24.9173 116.37 24.8393C116.121 24.7593 115.951 24.725 115.822 24.725C115.549 24.725 115.408 24.8812 115.065 25.2582C114.926 25.4125 114.751 25.6048 114.527 25.8315C114.146 26.2123 113.801 26.4866 113.435 26.6999C113.026 26.9398 112.571 27.1226 112.081 27.2483C111.596 27.3721 111.099 27.435 110.607 27.435C109.905 27.435 109.234 27.3093 108.612 27.0598C107.987 26.8103 107.421 26.4466 106.932 25.98C106.442 25.5134 106.039 24.9535 105.728 24.3118C105.479 23.7957 105.306 23.2167 105.212 22.5902C105.205 22.5331 105.22 22.4759 105.258 22.434C105.296 22.3902 105.349 22.3655 105.406 22.3655H119.03C119.529 22.3655 119.882 22.1236 120.103 21.6266C120.196 21.4171 120.194 21.0914 120.192 20.8286V20.7334C120.192 19.4556 119.965 18.2139 119.52 17.0446L119.522 17.0427ZM115.797 19.1737C115.759 19.2175 115.705 19.2423 115.646 19.2423H105.306C105.248 19.2423 105.193 19.2175 105.155 19.1737C105.117 19.1299 105.102 19.0728 105.109 19.0157C105.201 18.4291 105.368 17.873 105.604 17.3645C105.9 16.7285 106.292 16.18 106.768 15.7382C107.246 15.2945 107.806 14.9441 108.433 14.6927C109.059 14.4432 109.733 14.3156 110.44 14.3156C111.146 14.3156 111.828 14.4432 112.466 14.6927C113.104 14.9441 113.67 15.2964 114.146 15.7382C114.622 16.1819 115.022 16.7304 115.328 17.3684C115.574 17.8768 115.745 18.431 115.839 19.0157C115.848 19.0728 115.831 19.1299 115.795 19.1737H115.797Z" fill="var(--fill-0, white)"/>
<path id="Vector_12" d="M126.718 30.5658C127.339 30.5658 128.053 30.4877 128.842 30.3316C128.979 30.3049 129.12 30.2725 129.27 30.2364C129.83 30.0973 130.131 30.0155 130.664 29.7565C130.807 29.6879 130.954 29.566 130.893 29.2308L130.883 29.1775L130.453 26.8675C130.422 26.6637 130.261 26.4485 129.87 26.5723C129.569 26.6694 129.596 26.6656 129.272 26.7551C128.939 26.8465 128.644 26.8942 128.392 26.8942C127.777 26.8942 127.315 26.7132 126.977 26.3419C126.637 25.9667 126.471 25.4621 126.471 24.7955V4.40142C126.471 4.21289 126.319 4.06054 126.13 4.06054H122.788C122.536 4.06054 122.333 4.26431 122.333 4.51569V26.22C122.333 27.5988 122.721 28.6786 123.487 29.4327C124.252 30.1868 125.34 30.5677 126.717 30.5677L126.718 30.5658Z" fill="var(--fill-0, white)"/>
<path id="Vector_13" d="M133.586 27.7854C134.433 28.6804 135.467 29.4041 136.661 29.9335C137.859 30.4648 139.223 30.7352 140.718 30.7352C142.213 30.7352 143.54 30.4648 144.738 29.9335C145.932 29.4041 146.972 28.6804 147.831 27.7854C148.689 26.8903 149.356 25.8315 149.815 24.6355C150.274 23.4414 150.506 22.175 150.506 20.8743C150.506 19.5736 150.274 18.3072 149.815 17.1132C149.356 15.9191 148.687 14.8584 147.829 13.9633C146.97 13.0682 145.93 12.3465 144.736 11.8151C143.538 11.2838 142.186 11.0134 140.716 11.0134C139.246 11.0134 137.893 11.2838 136.696 11.8151C135.501 12.3465 134.46 13.0682 133.603 13.9633C132.744 14.8584 132.075 15.9191 131.618 17.1132C131.159 18.3072 130.927 19.5717 130.927 20.8743C130.927 22.1769 131.159 23.4414 131.618 24.6355C132.077 25.8315 132.738 26.8922 133.586 27.7854ZM135.8 18.5091C136.086 17.7645 136.477 17.1074 136.956 16.559C137.434 16.0124 138.006 15.5744 138.655 15.2545C139.301 14.9383 139.994 14.7765 140.72 14.7765C141.445 14.7765 142.176 14.9307 142.822 15.2373C143.469 15.5439 144.041 15.9762 144.519 16.5228C144.999 17.0713 145.381 17.7264 145.656 18.471C145.93 19.2156 146.071 20.025 146.071 20.8743C146.071 21.7237 145.932 22.5616 145.656 23.2948C145.381 24.028 144.999 24.6774 144.519 25.2259C144.041 25.7724 143.469 26.2047 142.822 26.5113C142.176 26.8179 141.47 26.9722 140.72 26.9722C139.969 26.9722 139.263 26.8179 138.617 26.5113C137.968 26.2047 137.396 25.7762 136.92 25.243C136.44 24.7079 136.059 24.0642 135.785 23.331C135.511 22.5978 135.37 21.7846 135.37 20.9105C135.37 20.0364 135.515 19.2537 135.802 18.5091H135.8Z" fill="var(--fill-0, white)"/>
<path id="Vector_14" d="M170.007 26.3115L170.087 26.1134C170.156 25.9135 170.163 25.7573 170.106 25.6526C170.06 25.5669 169.969 25.5078 169.828 25.4697L166.631 24.5004C166.566 24.4814 166.505 24.4718 166.454 24.4718C166.267 24.4718 166.189 24.5937 166.097 24.7366C166.078 24.767 166.059 24.7956 166.04 24.8242C165.842 25.1022 165.776 25.1727 165.579 25.3821L165.501 25.4659C165.223 25.7611 164.898 26.0258 164.532 26.2525C164.166 26.4791 163.755 26.6581 163.311 26.7819C162.868 26.9076 162.416 26.9704 161.969 26.9704C161.26 26.9704 160.58 26.8161 159.95 26.5095C159.316 26.201 158.752 25.7687 158.272 25.2222C157.792 24.6737 157.406 24.0186 157.128 23.274C156.848 22.5313 156.707 21.7124 156.707 20.8383C156.707 19.9642 156.844 19.1167 157.112 18.3835C157.381 17.6522 157.754 17.0085 158.223 16.4715C158.689 15.9383 159.247 15.5174 159.88 15.2222C160.512 14.927 161.205 14.7766 161.938 14.7766C162.803 14.7766 163.601 14.9899 164.311 15.4089C164.915 15.7669 165.271 16.342 165.65 16.9514L165.747 17.1057C165.808 17.2028 165.966 17.2694 166.134 17.2694C166.198 17.2694 166.261 17.2599 166.313 17.239L169.506 16.2011C169.773 16.1078 169.883 15.9249 169.895 15.8259C169.929 15.4907 169.84 15.2489 169.683 14.9651C169.007 13.7349 168.143 13.036 166.968 12.3066C165.585 11.4477 163.915 11.0116 162.009 11.0116C160.55 11.0116 159.211 11.2744 158.032 11.7943C156.852 12.3142 155.829 13.0303 154.991 13.9234C154.151 14.8185 153.5 15.8716 153.05 17.0562C152.603 18.2388 152.374 19.5109 152.374 20.8364C152.374 22.1618 152.607 23.4359 153.068 24.6185C153.528 25.8011 154.185 26.86 155.023 27.7645C155.861 28.671 156.886 29.4004 158.065 29.9298C159.245 30.4612 160.573 30.7316 162.009 30.7316C163.963 30.7316 165.684 30.2726 167.126 29.3661C168.592 28.4425 169.51 27.4713 170.009 26.3096L170.007 26.3115Z" fill="var(--fill-0, white)"/>
<path id="Vector_15" d="M189.601 30.5126C189.87 30.4897 190.175 30.465 190.508 30.3755C190.584 30.3564 190.685 30.3031 190.683 30.0784C190.683 29.9793 190.683 29.8784 190.683 29.7794V26.8295C190.683 26.7133 190.592 26.6181 190.474 26.6124C190.119 26.599 189.651 26.4715 189.651 25.5383V18.8063C189.651 16.3115 188.91 14.3672 187.446 13.0246C185.987 11.6877 183.926 11.0116 181.321 11.0116C180.651 11.0116 179.977 11.0669 179.316 11.1754C178.651 11.284 177.985 11.4496 177.331 11.6686C176.678 11.8857 176.025 12.1619 175.387 12.4875C175.052 12.6589 174.72 12.8436 174.404 13.0341C174.248 13.1274 174.088 13.2283 173.928 13.3331C173.698 13.4835 173.641 13.6892 173.759 13.9425C174.031 14.5271 174.21 14.889 174.416 15.306C174.521 15.5155 174.631 15.7421 174.766 16.0183C174.831 16.1497 174.974 16.2316 175.141 16.2316C175.229 16.2316 175.317 16.2087 175.393 16.1649C175.564 16.0659 175.726 15.9726 175.882 15.8811C176.682 15.4146 177.314 15.0451 178.101 14.7442C179.036 14.3862 179.999 14.2053 180.965 14.2053C182.374 14.2053 183.464 14.5747 184.204 15.3041C184.943 16.0316 185.318 17.0676 185.318 18.3797V18.8025C185.318 19.0291 185.134 19.2157 184.909 19.2157C184.869 19.2157 184.831 19.21 184.793 19.1986C184.311 19.0558 183.791 18.9339 183.248 18.8368C182.384 18.6806 181.496 18.6025 180.611 18.6025C179.432 18.6025 178.341 18.7492 177.364 19.0386C176.383 19.33 175.522 19.7471 174.806 20.2822C174.084 20.8211 173.519 21.4667 173.127 22.2037C172.732 22.9426 172.532 23.7786 172.532 24.687C172.532 25.544 172.7 26.3515 173.031 27.0866C173.363 27.8217 173.822 28.4672 174.397 29.0043C174.972 29.5432 175.665 29.9698 176.459 30.2764C177.251 30.5811 178.122 30.7354 179.045 30.7354C180.47 30.7354 181.824 30.4345 183.071 29.8422C184.094 29.3566 184.997 28.6825 185.755 27.8426L185.905 27.6769L185.926 27.8997L185.966 28.3397V28.3568C186.069 28.9929 186.349 29.5242 186.798 29.9336C187.251 30.3488 187.891 30.5583 188.701 30.5583C188.961 30.5583 189.238 30.5468 189.519 30.5221L189.605 30.5145L189.601 30.5126ZM185.237 24.6966C185.122 25.0451 184.878 25.3307 184.679 25.5402C183.547 26.7305 181.889 27.4427 180.243 27.4427C180.205 27.4427 180.169 27.4427 180.131 27.4427C179.268 27.4256 178.541 27.2237 177.967 26.8409C177.297 26.3934 176.819 25.6297 176.686 24.8013C176.634 24.4776 176.604 24.0015 176.758 23.5673C176.895 23.1807 177.135 22.8093 177.455 22.4932C177.695 22.257 177.971 22.0533 178.278 21.8895C178.918 21.5486 179.706 21.3525 180.691 21.2934C180.906 21.2801 181.123 21.2744 181.338 21.2744C182.563 21.2744 183.768 21.4781 184.922 21.8819C184.964 21.8971 185.01 21.9123 185.054 21.9352C185.115 21.9657 185.164 22 185.2 22.0438C185.315 22.1733 185.317 22.3561 185.317 22.478L185.328 23.7901C185.33 24.0757 185.334 24.4014 185.235 24.7004L185.237 24.6966Z" fill="var(--fill-0, white)"/>
<path id="Vector_16" d="M196.926 30.6648C197.552 30.6648 198.274 30.5848 199.068 30.4286C199.897 30.2668 200.43 30.1506 200.969 29.8497C201.186 29.7278 201.239 29.4841 201.222 29.3584C201.216 29.3146 201.214 29.2974 201.195 29.1984L201.188 29.1565L201.178 29.1013L201.119 28.7832L201.06 28.4652L201.011 28.2005L200.942 27.8272L200.889 27.5416L200.824 27.1912C200.79 27.0084 200.784 26.9741 200.753 26.8179L200.738 26.7322C200.702 26.538 200.54 26.4009 200.348 26.4009C200.295 26.4009 200.241 26.4104 200.19 26.4313C199.946 26.5285 199.83 26.5589 199.62 26.616L199.458 26.6598C199.135 26.7494 198.847 26.7951 198.605 26.7951C198.021 26.7951 197.581 26.6256 197.263 26.2752C196.939 25.919 196.783 25.4353 196.783 24.7935V4.55941C196.783 4.19567 196.55 3.96144 196.191 3.96144H193.014C192.698 3.96144 192.45 4.18616 192.45 4.47372V26.218C192.45 27.6235 192.848 28.728 193.635 29.5012C194.419 30.2725 195.53 30.6648 196.933 30.6648H196.926Z" fill="var(--fill-0, white)"/>
<g id="Group_2">
<path id="Vector_17" d="M131.856 49.9144C131.358 50.739 130.516 51.3865 129.487 51.7388C128.851 51.9578 128.141 52.0664 127.366 52.0664C127.086 52.0664 126.797 52.0531 126.498 52.0245C124.641 51.8436 123.033 51.1351 121.971 50.0287C121.933 49.9887 121.851 49.9049 121.857 49.7925C121.86 49.7183 121.904 49.6573 121.933 49.6192L122.487 48.8594C122.538 48.7889 122.603 48.7013 122.704 48.6556C122.95 48.5471 123.192 48.7623 123.308 48.8651C124.542 49.9582 126.256 50.5048 127.895 50.3258C128.731 50.2344 129.383 49.9697 129.832 49.5393C130.291 49.0974 130.596 48.3071 130.289 47.652C129.986 47.0026 129.228 46.7036 128.602 46.5132C128.059 46.3494 127.494 46.2161 126.947 46.0866C126.187 45.9076 125.401 45.721 124.652 45.4486C124.127 45.2582 123.47 44.9687 123.026 44.4298C122.666 43.9918 122.462 43.3881 122.451 42.7311C122.449 42.5901 122.455 42.4435 122.47 42.2969C122.483 42.1579 122.504 42.0131 122.534 41.8665C122.561 41.7294 122.595 41.5865 122.635 41.4437C122.674 41.3123 122.717 41.1733 122.767 41.0305C122.776 41.0019 122.782 40.9847 122.792 40.9695L122.805 40.9467C122.822 40.9124 122.835 40.8857 122.851 40.8591C122.877 40.8057 122.908 40.7543 122.938 40.7029C122.999 40.6001 123.068 40.501 123.138 40.4039C123.211 40.3106 123.287 40.2173 123.367 40.1297C123.447 40.0421 123.532 39.9564 123.622 39.8745C123.71 39.7964 123.803 39.7183 123.898 39.646C123.991 39.5736 124.09 39.505 124.193 39.4403C124.294 39.3755 124.399 39.3146 124.504 39.2594C124.608 39.2022 124.717 39.1508 124.825 39.1032C125.601 38.768 126.518 38.6138 127.551 38.6443C128.604 38.6766 130.561 38.9509 131.822 40.4249C131.906 40.522 131.997 40.6534 131.969 40.8038C131.948 40.9143 131.87 40.9924 131.811 41.0495L131.281 41.5713C131.22 41.6322 131.144 41.7065 131.041 41.7351C130.79 41.8093 130.588 41.5961 130.44 41.4399C129.903 40.8743 129.074 40.5353 127.907 40.4039C127.118 40.3144 126.503 40.3449 125.972 40.501C125.303 40.6991 124.768 41.1143 124.509 41.6437C124.216 42.2321 124.309 42.9634 124.73 43.3786C124.921 43.5671 125.174 43.6928 125.372 43.7823C126.113 44.1118 126.926 44.2793 127.714 44.4431C128.154 44.5345 128.61 44.6278 129.051 44.7497C129.773 44.9497 130.394 45.2239 130.899 45.5686C131.466 45.9552 131.876 46.4256 132.114 46.9664C132.512 47.8672 132.414 48.9984 131.856 49.9144Z" fill="var(--fill-0, white)"/>
<path id="Vector_18" d="M140.685 51.2017C140.626 51.2322 140.527 51.2874 140.388 51.3674C140.219 51.4664 140.007 51.5597 139.758 51.6454C139.518 51.7273 139.246 51.8035 138.952 51.8683C138.642 51.9368 138.307 51.9711 137.952 51.9711C137.598 51.9711 137.233 51.9178 136.905 51.8111C136.568 51.7026 136.267 51.535 136.008 51.3141C135.749 51.0913 135.541 50.8189 135.393 50.5028C135.244 50.1867 135.168 49.8153 135.168 49.3983V40.7828C135.168 40.6743 135.081 40.5847 134.97 40.5847H133.843C133.629 40.5847 133.454 40.4095 133.454 40.1962V39.2326C133.454 39.0193 133.629 38.8441 133.843 38.8441H134.97C135.081 38.8441 135.168 38.7565 135.168 38.6461V35.0544C135.168 34.8411 135.343 34.6659 135.557 34.6659H136.732C136.945 34.6659 137.12 34.8411 137.12 35.0544V38.6461C137.12 38.7565 137.21 38.8441 137.318 38.8441H139.571C139.786 38.8441 139.962 39.0193 139.962 39.2326V40.1962C139.962 40.4095 139.786 40.5847 139.571 40.5847H137.318C137.21 40.5847 137.12 40.6743 137.12 40.7828V49.1183C137.12 49.4421 137.221 49.6725 137.429 49.8229C137.676 50.0038 137.947 50.0895 138.257 50.0895C138.684 50.0895 139.049 50.0191 139.348 49.8801C139.807 49.6668 139.929 49.6001 139.96 49.5811C140.059 49.522 140.179 49.5106 140.287 49.5487C140.396 49.5868 140.481 49.6706 140.523 49.7791L140.876 50.718C140.944 50.9046 140.864 51.1122 140.685 51.2017Z" fill="var(--fill-0, white)"/>
<path id="Vector_19" d="M153.077 42.7749C152.755 41.9674 152.302 41.2475 151.733 40.6362C151.161 40.023 150.485 39.5317 149.722 39.1756C148.954 38.8156 148.109 38.6328 147.21 38.6328C146.311 38.6328 145.463 38.8156 144.688 39.1736C143.915 39.5317 143.239 40.023 142.675 40.6381C142.114 41.2494 141.666 41.9674 141.344 42.7749C141.022 43.5842 140.859 44.4545 140.859 45.361C140.859 46.2675 141.017 47.1111 141.331 47.9205C141.643 48.728 142.089 49.4497 142.651 50.061C143.216 50.6762 143.892 51.1675 144.664 51.5255C145.44 51.8835 146.297 52.0645 147.21 52.0645C148.122 52.0645 148.956 51.8835 149.733 51.5236C150.504 51.1675 151.18 50.6762 151.746 50.061C152.308 49.4497 152.755 48.7299 153.077 47.9224C153.399 47.1149 153.563 46.2523 153.563 45.361C153.563 44.4698 153.399 43.5842 153.077 42.7749ZM150.28 48.8099C149.878 49.2555 149.405 49.6078 148.876 49.8573C148.352 50.1048 147.783 50.2305 147.187 50.2305C146.591 50.2305 146.021 50.1048 145.498 49.8573C144.968 49.6078 144.5 49.2612 144.104 48.8308C143.707 48.3985 143.389 47.8824 143.157 47.2959C142.927 46.7112 142.809 46.0752 142.809 45.4086C142.809 44.7421 142.931 44.0984 143.17 43.4966C143.41 42.8929 143.734 42.3578 144.132 41.9103C144.526 41.4646 144.995 41.1085 145.526 40.8514C146.048 40.5962 146.616 40.4667 147.21 40.4667C147.804 40.4667 148.366 40.5962 148.882 40.8495C149.013 40.9143 149.141 40.9847 149.265 41.0628C149.434 41.1656 149.594 41.2837 149.748 41.4094C149.931 41.556 150.106 41.7141 150.268 41.8893C150.272 41.895 150.278 41.8988 150.281 41.9026C150.314 41.9388 150.342 41.9769 150.373 42.0131C150.733 42.4302 151.026 42.9101 151.239 43.449C151.47 44.0356 151.588 44.6716 151.588 45.3382C151.588 45.5933 151.571 45.8447 151.538 46.0885C151.483 46.4941 151.384 46.8826 151.239 47.2483C151.007 47.8367 150.683 48.3623 150.28 48.8099Z" fill="var(--fill-0, white)"/>
<path id="Vector_20" d="M161.778 39.187V40.2896C161.778 40.501 161.613 40.6724 161.401 40.6781C160.394 40.7067 159.501 41.0095 158.748 41.5751C158.019 42.1236 157.495 42.8853 157.187 43.8394C157.181 43.8585 157.177 43.8813 157.177 43.9042V51.4417C157.177 51.655 157.004 51.8302 156.789 51.8302H155.616C155.4 51.8302 155.227 51.655 155.227 51.4417V39.2327C155.227 39.0194 155.4 38.8442 155.616 38.8442H156.741C156.956 38.8442 157.132 39.0194 157.132 39.2327V40.3468C157.132 40.4306 157.177 40.4991 157.253 40.5296C157.316 40.5524 157.406 40.5524 157.476 40.4782C157.695 40.242 157.931 40.0249 158.183 39.8307C158.933 39.2479 159.756 38.909 160.624 38.8233C160.797 38.8061 160.948 38.7985 161.085 38.7985H161.39C161.605 38.7985 161.778 38.9718 161.778 39.187Z" fill="var(--fill-0, white)"/>
<path id="Vector_21" d="M173.42 49.9963C173.313 49.9963 173.292 49.9963 173.292 49.7982V43.8356C173.292 42.234 172.828 40.9523 171.912 40.0287C170.994 39.1032 169.731 38.6328 168.16 38.6328C166.678 38.6328 165.105 39.1927 163.481 40.2972C163.313 40.4115 163.262 40.6305 163.361 40.8076L163.806 41.6075C163.86 41.7008 163.951 41.7712 164.056 41.796C164.163 41.8208 164.275 41.7998 164.364 41.7389C165.023 41.2875 165.68 40.939 166.313 40.701C166.932 40.4686 167.522 40.3506 168.067 40.3506C169.078 40.3506 169.885 40.6534 170.462 41.2532C171.045 41.855 171.34 42.693 171.34 43.7404V44.1308C171.34 44.1936 171.312 44.2507 171.262 44.2888C171.213 44.325 171.15 44.3365 171.091 44.3212C170.746 44.2241 170.38 44.1422 169.999 44.0736C169.314 43.9537 168.625 43.8927 167.948 43.8927C167.166 43.8927 166.434 43.9879 165.776 44.1784C165.109 44.3688 164.528 44.6412 164.048 44.9878C163.559 45.3401 163.168 45.7628 162.892 46.2485C162.609 46.7436 162.466 47.2978 162.466 47.8957C162.466 48.4937 162.58 49.0365 162.805 49.543C163.028 50.0534 163.347 50.499 163.753 50.8704C164.153 51.2379 164.623 51.5312 165.151 51.7426C165.68 51.9578 166.259 52.0645 166.869 52.0645C167.935 52.0645 168.944 51.8569 169.868 51.4436C170.47 51.1751 171.013 50.8228 171.481 50.3962V50.4495C171.523 50.8285 171.666 51.158 171.908 51.4303C172.172 51.7274 172.523 51.8778 172.949 51.8778C173.022 51.8778 173.107 51.8721 173.208 51.8645C173.279 51.8569 173.349 51.8474 173.42 51.8359C173.595 51.8074 173.801 51.6931 173.808 51.4722V50.3848C173.808 50.1715 173.633 49.9963 173.42 49.9963ZM167.103 50.3486C166.714 50.3486 166.347 50.282 166.012 50.1525C165.677 50.0211 165.381 49.842 165.136 49.6173C164.896 49.3964 164.705 49.1298 164.572 48.8213C164.439 48.5128 164.37 48.1776 164.37 47.8253C164.37 47.473 164.45 47.1816 164.61 46.9055C164.774 46.6236 165.014 46.3799 165.32 46.1799C165.644 45.9685 166.04 45.8009 166.499 45.679C166.966 45.5553 167.493 45.4924 168.067 45.4924C168.695 45.4924 169.312 45.5438 169.899 45.6505C170.344 45.7305 170.784 45.8428 171.207 45.9837C171.287 46.0123 171.34 46.0866 171.34 46.1723V47.9205C171.34 48.1281 171.239 48.368 171.037 48.6308C170.672 49.1374 170.137 49.5526 169.443 49.8668C168.739 50.1867 167.952 50.3486 167.103 50.3486Z" fill="var(--fill-0, white)"/>
<path id="Vector_22" d="M186.8 38.8442H185.72C185.507 38.8442 185.332 39.0194 185.332 39.2327V40.2801C185.332 40.362 185.286 40.4305 185.212 40.461C185.136 40.4934 185.056 40.4782 184.997 40.421C184.669 40.0992 184.313 39.8021 183.938 39.5374C183.083 38.9375 182.071 38.6328 180.931 38.6328C180.03 38.6328 179.194 38.8213 178.447 39.1908C177.705 39.5564 177.059 40.0592 176.528 40.6838C175.998 41.3028 175.583 42.0283 175.296 42.8358C175.008 43.6394 174.861 44.4907 174.861 45.361C174.861 46.2313 175.016 47.0331 175.322 47.8253C175.625 48.6156 176.052 49.3298 176.589 49.9468C177.128 50.5695 177.779 51.0742 178.527 51.4493C179.283 51.8264 180.123 52.0188 181.026 52.0188C181.997 52.0188 182.94 51.7598 183.825 51.2494C184.218 51.0247 184.581 50.76 184.909 50.461C184.968 50.4076 185.048 50.3943 185.12 50.4267C185.195 50.4591 185.238 50.5276 185.238 50.6076V51.676C185.238 52.2873 185.128 52.8224 184.913 53.268C184.696 53.7137 184.4 54.0926 184.033 54.3916C183.658 54.6944 183.212 54.9287 182.706 55.0848C182.189 55.2448 181.631 55.3267 181.049 55.3267C180.171 55.3267 179.333 55.1438 178.56 54.7858C177.807 54.4392 177.202 53.8793 176.76 53.1233C176.705 53.0319 176.613 52.9652 176.511 52.9405C176.406 52.9176 176.295 52.9386 176.206 52.9976L175.408 53.5385C175.238 53.6527 175.187 53.8812 175.292 54.0584C175.555 54.504 175.869 54.9191 176.225 55.2905C176.585 55.6676 177.004 55.9913 177.465 56.2522C177.926 56.5112 178.461 56.715 179.059 56.8559C179.649 56.9949 180.319 57.0654 181.049 57.0654C181.85 57.0654 182.627 56.953 183.357 56.7321C184.096 56.5074 184.755 56.1684 185.316 55.7266C185.882 55.2772 186.341 54.7078 186.678 54.0336C187.017 53.3556 187.188 52.5634 187.188 51.676V39.2327C187.188 39.0194 187.015 38.8442 186.8 38.8442ZM181.308 50.2305C180.695 50.2305 180.112 50.101 179.571 49.8458C179.026 49.5868 178.546 49.2307 178.145 48.787C177.739 48.3376 177.415 47.8158 177.183 47.2349C176.952 46.6598 176.836 46.0371 176.836 45.3839C176.836 44.7878 176.935 44.186 177.133 43.5937C177.329 43.0072 177.615 42.474 177.985 42.0112C178.348 41.5541 178.802 41.1771 179.333 40.8895C179.851 40.6096 180.453 40.4667 181.119 40.4667C181.226 40.4667 181.331 40.4724 181.437 40.482C181.755 40.5105 182.073 40.5791 182.386 40.6915C182.706 40.8057 183.012 40.9504 183.302 41.1276C183.397 41.1847 183.492 41.2475 183.583 41.3123C183.949 41.5694 184.28 41.8874 184.57 42.2549C184.835 42.5939 185.054 42.9634 185.221 43.3557C185.233 43.3804 185.238 43.409 185.238 43.4376V47.2711C185.238 47.2844 185.238 47.2997 185.236 47.313C185.177 47.6348 185.038 47.9643 184.821 48.2938C184.587 48.648 184.284 48.9717 183.919 49.2574C183.551 49.5469 183.134 49.7849 182.677 49.9658C182.233 50.141 181.772 50.2305 181.308 50.2305Z" fill="var(--fill-0, white)"/>
<path id="Vector_23" d="M200.917 42.7406C200.475 41.6056 199.75 40.6324 198.817 39.9259C197.164 38.6747 194.928 38.3091 192.982 38.9718C192.776 39.0404 192.572 39.1242 192.372 39.2175C192.176 39.3089 191.98 39.4136 191.791 39.5298C191.607 39.6421 191.424 39.7678 191.247 39.9011C191.073 40.0345 190.906 40.1773 190.746 40.3296C190.586 40.4801 190.432 40.6401 190.289 40.8057C190.146 40.9714 190.011 41.1466 189.885 41.3275C189.759 41.5065 189.641 41.6951 189.539 41.8874C189.432 42.0779 189.337 42.2778 189.253 42.4797C189.167 42.6835 189.095 42.8929 189.034 43.1024C189.028 43.1234 189.022 43.1424 189.017 43.1634C189.009 43.1938 189.003 43.2262 188.992 43.2548C188.99 43.2605 188.984 43.2681 188.969 43.2929C188.948 43.3271 188.939 43.3614 188.929 43.3919C188.897 43.5081 188.866 43.6261 188.838 43.7442C188.784 43.9784 188.742 44.2203 188.714 44.4622C188.683 44.7002 188.666 44.944 188.662 45.1877C188.657 45.4296 188.664 45.6734 188.685 45.9152C188.704 46.1552 188.737 46.3989 188.781 46.6351C188.824 46.875 188.882 47.1112 188.948 47.3416C189.017 47.5758 189.099 47.8063 189.19 48.0272C189.281 48.2519 189.386 48.4728 189.502 48.6823C189.615 48.8899 189.738 49.0898 189.87 49.2803C191.073 51.0094 193.096 52.0797 195.156 52.0797H195.204C197.324 52.0626 199.361 50.8895 200.397 49.0898C200.451 48.9965 200.611 48.7185 200.475 48.4918C200.39 48.3471 200.232 48.2957 200.075 48.2538L199.222 48.0234C199.032 47.972 198.834 48.0596 198.741 48.2348C198.702 48.3071 198.662 48.3757 198.621 48.4442C198.579 48.5128 198.533 48.5794 198.487 48.6442C198.44 48.7089 198.392 48.7718 198.341 48.8346C198.289 48.8956 198.236 48.9565 198.183 49.0155C198.127 49.0746 198.07 49.1317 198.011 49.1869C197.954 49.2422 197.893 49.2955 197.832 49.3469C197.769 49.3983 197.706 49.4478 197.642 49.4955C197.577 49.545 197.51 49.5907 197.442 49.6345C197.375 49.6783 197.307 49.7221 197.236 49.7621C197.166 49.8021 197.093 49.8402 197.021 49.8763C196.949 49.9144 196.874 49.9487 196.8 49.9811C196.726 50.0135 196.649 50.0439 196.573 50.0706C196.497 50.0992 196.421 50.1258 196.343 50.1506C196.265 50.1734 196.187 50.1944 196.107 50.2153C196.029 50.2344 195.949 50.2515 195.869 50.2667C195.789 50.282 195.709 50.2934 195.629 50.3048C195.547 50.3143 195.467 50.322 195.385 50.3277C195.305 50.3334 195.223 50.3372 195.143 50.3372C195.061 50.3391 194.981 50.3372 194.899 50.3334C194.819 50.3277 194.738 50.322 194.658 50.3124C194.578 50.3029 194.498 50.2915 194.418 50.2763L194.345 50.2629C192.595 49.9125 191.129 48.3852 190.778 46.5513C190.755 46.4332 190.746 46.2789 190.83 46.2237C190.87 46.1971 190.931 46.1951 191.005 46.1951H200.704C201.033 46.1971 201.308 45.9533 201.34 45.6315C201.351 45.521 201.359 45.4029 201.363 45.2715C201.388 44.4279 201.233 43.5519 200.917 42.7406ZM199.358 44.4088C199.321 44.4526 199.266 44.4793 199.207 44.4793H190.906C190.847 44.4793 190.792 44.4526 190.754 44.4088C190.715 44.3631 190.7 44.3022 190.71 44.2432C190.784 43.828 190.9 43.43 191.058 43.0605C191.296 42.5064 191.616 42.0265 192.009 41.6322C192.403 41.2399 192.864 40.9276 193.38 40.7067C193.892 40.4858 194.448 40.3734 195.033 40.3734C195.617 40.3734 196.175 40.4858 196.688 40.7048C197.202 40.9276 197.663 41.2399 198.057 41.6322C198.156 41.7313 198.251 41.836 198.341 41.9446C198.613 42.274 198.845 42.6454 199.036 43.0586C199.161 43.331 199.262 43.6242 199.337 43.9308C199.361 44.0318 199.384 44.1365 199.401 44.2412C199.413 44.3003 199.398 44.3612 199.358 44.4088Z" fill="var(--fill-0, white)"/>
</g>
</g>
</svg>
