<svg preserveAspectRatio="none" width="100%" height="100%" overflow="visible" style="display: block;" viewBox="0 0 96.304 19.8195" fill="none" xmlns="http://www.w3.org/2000/svg">
<g id="Guides">
<path id="Vector" d="M10.2674 11.6759C10.1168 11.6766 9.96647 11.6617 9.81887 11.6316C9.50762 11.5705 9.21184 11.4474 8.94909 11.2697C8.68634 11.092 8.462 10.8633 8.28938 10.5972C7.92991 10.0511 7.79612 9.38698 7.91615 8.74432C8.02563 8.10526 8.38409 7.5357 8.91292 7.16057C9.16906 6.97775 9.45974 6.84901 9.76725 6.78218C10.0748 6.71534 10.3927 6.71182 10.7016 6.77183C11.994 7.02434 12.8479 8.32236 12.6076 9.65138C12.4981 10.2904 12.1397 10.86 11.6108 11.2351C11.2203 11.5193 10.7504 11.6735 10.2674 11.6759V11.6759ZM10.2586 7.24585C9.87658 7.24597 9.50414 7.36521 9.19312 7.58696C8.98485 7.73377 8.80767 7.92031 8.67176 8.13585C8.53586 8.35139 8.44392 8.59168 8.40124 8.84289C8.30479 9.3516 8.41005 9.87787 8.69474 10.3104C8.83068 10.5217 9.00803 10.7032 9.21608 10.8441C9.42414 10.9849 9.65858 11.0822 9.90526 11.1299C10.1505 11.1791 10.4032 11.1772 10.6477 11.1244C10.8921 11.0716 11.1231 10.9691 11.3262 10.8231C11.7462 10.526 12.0311 10.0743 12.1181 9.56721C12.3097 8.50067 11.633 7.4751 10.6063 7.2824C10.4921 7.25681 10.3756 7.24345 10.2586 7.24252V7.24585Z" fill="var(--fill-0, white)"/>
<path id="Vector_2" d="M10.2741 19.8195C9.63062 19.8184 8.98872 19.7565 8.35694 19.6346C2.80273 18.5525 -0.867595 12.9894 0.177904 7.2392C0.432352 5.81828 0.97245 4.46375 1.76551 3.25759C2.55858 2.05143 3.58812 1.01872 4.79184 0.22195C4.94563 0.120297 5.11876 0.0514981 5.30038 0.0198624C5.482 -0.0117733 5.66819 -0.00556409 5.8473 0.0381011C6.02609 0.0804616 6.19461 0.158129 6.34296 0.266538C6.49131 0.374948 6.6165 0.511914 6.71117 0.669388C6.90951 0.993422 6.9753 1.38145 6.89485 1.75275C6.8144 2.12405 6.59391 2.45005 6.27923 2.66292C5.40057 3.24234 4.64897 3.99446 4.07016 4.87353C3.49135 5.7526 3.09743 6.74023 2.91237 7.77635C2.53866 9.79249 2.96191 11.875 4.09299 13.5853C4.6335 14.4156 5.33553 15.1288 6.15729 15.6823C6.97905 16.2358 7.90375 16.6183 8.87637 16.8071C11.8667 17.3907 14.8692 16.0628 16.5316 13.4214C16.6278 13.2649 16.7546 13.1294 16.9045 13.023C17.0543 12.9167 17.2241 12.8416 17.4036 12.8025C17.5831 12.7633 17.7687 12.7607 17.9492 12.7949C18.1297 12.8291 18.3015 12.8995 18.4542 13.0016C18.7645 13.2186 18.9796 13.5464 19.0551 13.9174C19.1305 14.2885 19.0605 14.6743 18.8596 14.9952C16.9369 18.0475 13.7074 19.8195 10.2741 19.8195ZM5.53166 0.512121C5.36265 0.511803 5.19733 0.561514 5.05653 0.654991C3.91082 1.41353 2.93084 2.39655 2.17587 3.54462C1.4209 4.69269 0.906611 5.98195 0.664107 7.33445C-0.332662 12.8122 3.16378 18.1029 8.45441 19.1329C12.3562 19.8948 16.2801 18.1605 18.4476 14.7172C18.5773 14.5102 18.6226 14.2612 18.5742 14.0218C18.5258 13.7823 18.3873 13.5706 18.1873 13.4302C18.0891 13.3636 17.9784 13.3175 17.8618 13.2949C17.7453 13.2723 17.6254 13.2737 17.5094 13.2988C17.3934 13.324 17.2837 13.3725 17.187 13.4413C17.0903 13.5102 17.0086 13.598 16.9469 13.6994C15.1748 16.5158 11.973 17.9323 8.78666 17.3077C7.74989 17.1057 6.76445 16.6969 5.88914 16.1057C5.01383 15.5144 4.26661 14.7529 3.69207 13.8666C2.48553 12.0442 2.03513 9.82404 2.43614 7.67556C2.63278 6.57105 3.05237 5.51816 3.66931 4.58114C4.28625 3.64411 5.08761 2.84259 6.02451 2.22545C6.22556 2.08794 6.36652 1.87885 6.4186 1.6409C6.47068 1.40294 6.42994 1.15409 6.30471 0.945161C6.244 0.844166 6.16375 0.756296 6.06867 0.686693C5.97358 0.617091 5.86557 0.567155 5.75095 0.539809C5.67953 0.520272 5.60569 0.51095 5.53166 0.512121V0.512121Z" fill="var(--fill-0, white)"/>
<path id="Vector_3" d="M10.6739 15.6586C10.3457 15.6587 10.0285 15.5408 9.78011 15.3263C9.49549 15.0764 9.32014 14.7249 9.29169 14.3473C9.25537 13.9734 9.3679 13.6002 9.60486 13.3087C9.84183 13.0172 10.1841 12.8309 10.5576 12.7901C11.1558 12.7383 11.7293 12.5276 12.2189 12.1799C12.9878 11.6336 13.5097 10.8056 13.6708 9.87621C13.8457 8.94168 13.6503 7.9758 13.1259 7.18272C12.8751 6.79504 12.5487 6.46193 12.1662 6.20332C11.7837 5.94471 11.353 5.7659 10.8998 5.6776C10.4506 5.5896 9.98822 5.59422 9.54089 5.69115C9.09355 5.78808 8.67071 5.97529 8.29825 6.24133C7.71639 6.65021 7.27228 7.22601 7.0246 7.89264C6.96232 8.06626 6.86587 8.22564 6.74095 8.36135C6.61602 8.49706 6.46516 8.60634 6.29727 8.68275C6.12939 8.75916 5.94789 8.80113 5.7635 8.80619C5.57912 8.81125 5.39559 8.77929 5.22377 8.7122C4.87474 8.56363 4.59713 8.2852 4.44957 7.93574C4.30202 7.58628 4.29607 7.19315 4.433 6.83939C4.883 5.63867 5.68323 4.60077 6.73 3.86016C7.4389 3.35621 8.24762 3.01012 9.10163 2.84524C9.95563 2.68037 10.8351 2.70053 11.6806 2.90437C13.22 3.27832 14.5588 4.22539 15.424 5.55245C17.3699 8.50178 16.6346 12.5387 13.7882 14.5488C12.9077 15.1773 11.8754 15.5596 10.7979 15.6564C10.7558 15.6552 10.7171 15.6586 10.6739 15.6586ZM10.2519 5.09836C10.9051 5.09936 11.5477 5.26349 12.1213 5.57585C12.695 5.8882 13.1815 6.3389 13.5368 6.88701C14.1343 7.79311 14.3563 8.8959 14.1559 9.96259C13.9697 11.0241 13.3729 11.9695 12.4946 12.5941C11.938 12.9897 11.2864 13.2309 10.6063 13.2929C10.3659 13.32 10.1457 13.4402 9.99288 13.6278C9.84008 13.8154 9.76687 14.0554 9.78897 14.2963C9.80726 14.5374 9.91749 14.7622 10.0969 14.9243C10.1859 15.0027 10.2899 15.0621 10.4026 15.0991C10.5153 15.136 10.6344 15.1496 10.7525 15.1391C11.7452 15.048 12.6964 14.697 13.5102 14.1213C16.1317 12.2718 16.8084 8.55494 15.0176 5.83819C14.2204 4.61722 12.9879 3.74591 11.571 3.40164C10.7926 3.21324 9.98288 3.19405 9.19647 3.34537C8.41006 3.49669 7.66528 3.815 7.01241 4.2788C6.04741 4.9613 5.3106 5.91889 4.89816 7.02656C4.811 7.25355 4.81527 7.5055 4.91008 7.72941C5.00489 7.95332 5.18285 8.13173 5.40651 8.22711C5.51721 8.27083 5.63559 8.29181 5.75457 8.28878C5.87356 8.28574 5.99071 8.25877 6.09904 8.20946C6.20737 8.16015 6.30466 8.08953 6.38509 8.00179C6.46553 7.91406 6.52746 7.81102 6.56719 7.69882C6.85057 6.93873 7.35756 6.28231 8.02137 5.81604C8.67275 5.35185 9.45206 5.10111 10.2519 5.09836Z" fill="var(--fill-0, white)"/>
<path id="Vector_4" fill-rule="evenodd" clip-rule="evenodd" d="M25.4471 7.30787H28.1649C28.3448 7.31504 28.5148 7.39152 28.6395 7.52127C28.7642 7.65103 28.8338 7.824 28.8338 8.00395C28.8338 8.18389 28.7642 8.35686 28.6395 8.48662C28.5148 8.61637 28.3448 8.69285 28.1649 8.70002H25.4471V18.7785C25.4511 18.8871 25.4332 18.9954 25.3944 19.0969C25.3556 19.1985 25.2967 19.2911 25.2213 19.3694C25.1459 19.4477 25.0555 19.5099 24.9554 19.5524C24.8554 19.595 24.7478 19.6169 24.6392 19.6169C24.5305 19.6169 24.4229 19.595 24.3229 19.5524C24.2228 19.5099 24.1324 19.4477 24.057 19.3694C23.9816 19.2911 23.9227 19.1985 23.8839 19.0969C23.8451 18.9954 23.8272 18.8871 23.8312 18.7785V8.70002H21.4357C21.2558 8.69285 21.0858 8.61637 20.9611 8.48662C20.8364 8.35686 20.7668 8.18389 20.7668 8.00395C20.7668 7.824 20.8364 7.65103 20.9611 7.52127C21.0858 7.39152 21.2558 7.31504 21.4357 7.30787H23.8301V3.40607C23.8301 3.19165 23.9153 2.98601 24.0669 2.83438C24.2185 2.68276 24.4242 2.59758 24.6386 2.59758C24.853 2.59758 25.0587 2.68276 25.2103 2.83438C25.3619 2.98601 25.4471 3.19165 25.4471 3.40607V7.30787Z" fill="var(--fill-0, white)"/>
<path id="Vector_5" fill-rule="evenodd" clip-rule="evenodd" d="M40.4097 13.2121C40.4097 9.64806 38.0684 6.97229 34.7613 6.97229C31.2095 6.97229 28.7586 9.95263 28.7586 13.3516C28.7586 16.7207 31.0744 19.7298 34.923 19.7298C37.0506 19.7298 38.7994 18.6998 39.712 17.393C39.8176 17.247 39.8742 17.0714 39.8737 16.8912C39.878 16.8007 39.8638 16.7101 39.8319 16.6252C39.8 16.5403 39.7511 16.4629 39.6881 16.3976C39.6251 16.3324 39.5494 16.2807 39.4657 16.2458C39.382 16.2109 39.2921 16.1934 39.2014 16.1946C38.9046 16.1946 38.7163 16.3895 38.5812 16.5568C37.611 17.754 36.427 18.3111 34.9197 18.3111C32.0933 18.3111 30.4808 16.1403 30.3977 13.9109H39.7341C39.9152 13.9043 40.0867 13.8279 40.2127 13.6976C40.3386 13.5673 40.4092 13.3933 40.4097 13.2121V13.2121ZM30.4531 12.5154C30.6668 10.2317 32.3924 8.36555 34.7602 8.36555C37.0761 8.36555 38.7185 10.1741 38.9323 12.5154H30.4531Z" fill="var(--fill-0, white)"/>
<path id="Vector_6" fill-rule="evenodd" clip-rule="evenodd" d="M52.7818 12.6827V18.7818C52.7858 18.8904 52.7679 18.9987 52.7291 19.1002C52.6903 19.2018 52.6315 19.2944 52.556 19.3727C52.4806 19.451 52.3902 19.5132 52.2902 19.5558C52.1901 19.5983 52.0826 19.6202 51.9739 19.6202C51.8652 19.6202 51.7576 19.5983 51.6576 19.5558C51.5575 19.5132 51.4671 19.451 51.3917 19.3727C51.3163 19.2944 51.2574 19.2018 51.2186 19.1002C51.1798 18.9987 51.1619 18.8904 51.1659 18.7818V12.5431C51.1659 10.2317 49.4703 8.47741 47.2641 8.47741C45.058 8.47741 43.3623 10.2317 43.3623 12.5431V18.7818C43.3623 18.9962 43.2772 19.2018 43.1255 19.3535C42.9739 19.5051 42.7683 19.5903 42.5539 19.5903C42.3394 19.5903 42.1338 19.5051 41.9822 19.3535C41.8305 19.2018 41.7454 18.9962 41.7454 18.7818V12.6827C41.7454 9.48082 44.1398 6.97229 47.2641 6.97229C50.3884 6.97229 52.7818 9.4775 52.7818 12.6827Z" fill="var(--fill-0, white)"/>
<path id="Vector_7" fill-rule="evenodd" clip-rule="evenodd" d="M60.7039 6.97229C57.2872 6.97229 54.5395 9.4775 54.5395 13.3516C54.5395 16.7506 56.7202 19.7298 60.6474 19.7298C62.6664 19.7298 64.2269 18.8128 65.196 17.3343V18.7818C65.196 18.9962 65.2812 19.2018 65.4328 19.3535C65.5844 19.5051 65.7901 19.5903 66.0045 19.5903C66.2189 19.5903 66.4246 19.5051 66.5762 19.3535C66.7278 19.2018 66.813 18.9962 66.813 18.7818V13.3793C66.813 9.5362 64.1738 6.97229 60.7039 6.97229ZM60.7039 18.2801C57.9351 18.2801 56.1298 16.1636 56.1298 13.3516C56.1298 10.5396 57.9606 8.42314 60.7039 8.42314C63.342 8.42314 65.1993 10.5119 65.1993 13.3516C65.1993 16.0241 63.3132 18.2801 60.7039 18.2801V18.2801Z" fill="var(--fill-0, white)"/>
<path id="Vector_8" fill-rule="evenodd" clip-rule="evenodd" d="M80.1431 12.6827V18.7818C80.1471 18.8904 80.1292 18.9987 80.0904 19.1002C80.0516 19.2018 79.9928 19.2944 79.9173 19.3727C79.8419 19.451 79.7515 19.5132 79.6515 19.5558C79.5514 19.5983 79.4438 19.6202 79.3352 19.6202C79.2265 19.6202 79.1189 19.5983 79.0189 19.5558C78.9188 19.5132 78.8284 19.451 78.753 19.3727C78.6776 19.2944 78.6187 19.2018 78.5799 19.1002C78.5411 18.9987 78.5232 18.8904 78.5272 18.7818V12.5431C78.5272 10.2317 76.8316 8.47741 74.6254 8.47741C72.4192 8.47741 70.7236 10.2317 70.7236 12.5431V18.7818C70.7277 18.8904 70.7097 18.9987 70.671 19.1002C70.6322 19.2018 70.5733 19.2944 70.4979 19.3727C70.4225 19.451 70.332 19.5132 70.232 19.5558C70.132 19.5983 70.0244 19.6202 69.9157 19.6202C69.807 19.6202 69.6994 19.5983 69.5994 19.5558C69.4994 19.5132 69.409 19.451 69.3335 19.3727C69.2581 19.2944 69.1992 19.2018 69.1605 19.1002C69.1217 18.9987 69.1037 18.8904 69.1078 18.7818V12.6827C69.1078 9.48082 71.5022 6.97229 74.6254 6.97229C77.7486 6.97229 80.1431 9.4775 80.1431 12.6827Z" fill="var(--fill-0, white)"/>
<path id="Vector_9" fill-rule="evenodd" clip-rule="evenodd" d="M85.6718 7.30787H88.3897C88.5695 7.31504 88.7396 7.39152 88.8642 7.52127C88.9889 7.65103 89.0586 7.82399 89.0586 8.00394C89.0586 8.18389 88.9889 8.35686 88.8642 8.48662C88.7396 8.61637 88.5695 8.69285 88.3897 8.70002H85.6718V18.7785C85.6718 18.9929 85.5867 19.1985 85.435 19.3501C85.2834 19.5018 85.0778 19.5869 84.8634 19.5869C84.6489 19.5869 84.4433 19.5018 84.2917 19.3501C84.14 19.1985 84.0549 18.9929 84.0549 18.7785V8.70002H81.6604C81.4806 8.69285 81.3106 8.61637 81.1859 8.48662C81.0612 8.35686 80.9916 8.18389 80.9916 8.00394C80.9916 7.82399 81.0612 7.65103 81.1859 7.52127C81.3106 7.39152 81.4806 7.31504 81.6604 7.30787H84.0549V3.40607C84.0549 3.19165 84.14 2.98601 84.2917 2.83438C84.4433 2.68276 84.6489 2.59758 84.8634 2.59758C85.0778 2.59758 85.2834 2.68276 85.435 2.83438C85.5867 2.98601 85.6718 3.19165 85.6718 3.40607V7.30787Z" fill="var(--fill-0, white)"/>
<path id="Vector_10" d="M90.5062 13.6241C90.5086 13.5534 90.5317 13.4851 90.5727 13.4275C90.6137 13.3699 90.6707 13.3257 90.7366 13.3003C90.8026 13.2749 90.8745 13.2695 90.9435 13.2848C91.0125 13.3 91.0755 13.3352 91.1246 13.386C91.1738 13.4368 91.2069 13.5009 91.2198 13.5704C91.2327 13.6398 91.2249 13.7116 91.1973 13.7767C91.1698 13.8417 91.1237 13.8972 91.0648 13.9363C91.0059 13.9753 90.9368 13.9961 90.8661 13.9962C90.818 13.9956 90.7704 13.9855 90.7262 13.9664C90.682 13.9474 90.642 13.9198 90.6086 13.8852C90.5751 13.8506 90.5488 13.8097 90.5312 13.7649C90.5137 13.72 90.5052 13.6722 90.5062 13.6241V13.6241ZM96.2653 13.6241C96.2665 13.6621 96.26 13.7001 96.2463 13.7356C96.2326 13.7712 96.212 13.8036 96.1856 13.8311C96.1591 13.8585 96.1275 13.8804 96.0925 13.8954C96.0575 13.9105 96.0198 13.9184 95.9817 13.9187H92.3103C92.2722 13.9184 92.2346 13.9105 92.1996 13.8954C92.1646 13.8804 92.1329 13.8585 92.1065 13.8311C92.0801 13.8036 92.0594 13.7712 92.0458 13.7356C92.0321 13.7001 92.0256 13.6621 92.0268 13.6241C92.0253 13.586 92.0315 13.5479 92.0451 13.5123C92.0587 13.4767 92.0794 13.4442 92.1059 13.4168C92.1324 13.3893 92.1642 13.3676 92.1993 13.3527C92.2344 13.3379 92.2722 13.3304 92.3103 13.3306H95.9851C96.023 13.3311 96.0604 13.3392 96.0952 13.3543C96.13 13.3694 96.1615 13.3911 96.1878 13.4184C96.2141 13.4457 96.2348 13.4779 96.2487 13.5132C96.2626 13.5485 96.2693 13.5861 96.2686 13.6241H96.2653Z" fill="var(--fill-0, white)"/>
<path id="Vector_11" d="M95.9851 7.82619C96.0629 7.82619 96.1376 7.85711 96.1926 7.91215C96.2476 7.96719 96.2786 8.04184 96.2786 8.11968C96.2786 8.19752 96.2476 8.27217 96.1926 8.32721C96.1376 8.38225 96.0629 8.41317 95.9851 8.41317H93.8741C93.6897 8.41217 93.507 8.44843 93.337 8.51978C93.167 8.59113 93.0131 8.69611 92.8846 8.8284C92.7561 8.9607 92.6557 9.11758 92.5894 9.28965C92.5231 9.46171 92.4922 9.6454 92.4986 9.82969C92.4986 10.6293 93.0922 11.2429 93.8741 11.2429H95.9851C96.0629 11.2429 96.1376 11.2738 96.1926 11.3288C96.2476 11.3839 96.2786 11.4585 96.2786 11.5364C96.2786 11.6142 96.2476 11.6889 96.1926 11.7439C96.1376 11.799 96.0629 11.8299 95.9851 11.8299H93.9229C92.8419 11.8299 91.9936 10.9638 91.9936 9.83634C91.9936 8.70888 92.8419 7.8428 93.9229 7.8428H95.9851V7.82619Z" fill="var(--fill-0, white)"/>
<path id="Vector_12" d="M92.7843 2.63081C92.833 2.59439 92.8919 2.57424 92.9527 2.57322C92.987 2.57567 93.0204 2.58506 93.0509 2.60081C93.0814 2.61657 93.1085 2.63837 93.1303 2.66488C93.1522 2.6914 93.1684 2.72208 93.178 2.75506C93.1877 2.78804 93.1905 2.82263 93.1864 2.85674C93.1852 2.89717 93.1745 2.93675 93.1553 2.97233C93.1361 3.00791 93.1088 3.03849 93.0756 3.06163C92.8808 3.21267 92.7252 3.40833 92.6219 3.63211C92.5186 3.8559 92.4706 4.10125 92.482 4.34746C92.482 4.78924 92.6575 5.21292 92.9699 5.5253C93.2822 5.83768 93.7059 6.01317 94.1477 6.01317C94.5895 6.01317 95.0132 5.83768 95.3255 5.5253C95.6379 5.21292 95.8134 4.78924 95.8134 4.34746C95.8249 4.10134 95.7771 3.85605 95.674 3.63228C95.5709 3.4085 95.4155 3.21279 95.2209 3.06163C95.1877 3.03849 95.1604 3.00791 95.1412 2.97233C95.122 2.93675 95.1113 2.89717 95.1101 2.85674C95.1063 2.82269 95.1094 2.78821 95.1191 2.75536C95.1289 2.72251 95.1452 2.69195 95.167 2.66551C95.1888 2.63906 95.2156 2.61727 95.246 2.60141C95.2764 2.58556 95.3097 2.57597 95.3438 2.57322C95.4047 2.57385 95.4637 2.59405 95.5122 2.63081C95.9341 2.9243 96.304 3.54562 96.304 4.34746C96.304 5.62444 95.3804 6.58023 94.1466 6.58023C92.9128 6.58023 91.9869 5.62111 91.9869 4.34746C91.9947 3.54562 92.3602 2.9243 92.7843 2.63081Z" fill="var(--fill-0, white)"/>
</g>
</svg>
