<svg preserveAspectRatio="none" width="100%" height="100%" overflow="visible" style="display: block;" viewBox="0 0 24 24" fill="none" xmlns="http://www.w3.org/2000/svg">
<g id="information/information-circle">
<path id="Vector" d="M2 12C2 6.47715 6.47715 2 12 2C17.5228 2 22 6.47715 22 12C22 17.5228 17.5228 22 12 22C6.47715 22 2 17.5228 2 12ZM13 8.6239C13 8.07162 12.5523 7.6239 12 7.6239C11.4477 7.6239 11 8.07162 11 8.6239V8.62503C11 9.17731 11.4477 9.62503 12 9.62503C12.5523 9.62503 13 9.17731 13 8.62503V8.6239ZM13 12C13 11.4477 12.5523 11 12 11C11.4477 11 11 11.4477 11 12V16C11 16.5523 11.4477 17 12 17C12.5523 17 13 16.5523 13 16V12Z" fill="currentColor"/>
</g>
</svg>
