<svg preserveAspectRatio="none" width="100%" height="100%" overflow="visible" style="display: block;" viewBox="0 0 24 24" fill="none" xmlns="http://www.w3.org/2000/svg">
<g id="message/message-default">
<path id="Vector" fill-rule="evenodd" clip-rule="evenodd" d="M16.2002 2C17.0237 2 17.7016 1.99898 18.252 2.04395C18.814 2.08987 19.3311 2.18827 19.8164 2.43555L20.0918 2.58984C20.7183 2.97413 21.2289 3.52513 21.5645 4.18359L21.6504 4.36719C21.8356 4.79892 21.9159 5.2562 21.9561 5.74805C22.001 6.29843 22 6.97632 22 7.7998V12.2002C22 13.0237 22.001 13.7016 21.9561 14.252C21.9159 14.7438 21.8356 15.2011 21.6504 15.6328L21.5645 15.8164C21.2289 16.4749 20.7183 17.0259 20.0918 17.4102L19.8164 17.5645C19.3311 17.8117 18.814 17.9101 18.252 17.9561C17.7016 18.001 17.0237 18 16.2002 18H13.3516L8.625 21.7812C8.32483 22.0214 7.91287 22.0679 7.56641 21.9014C7.22012 21.7348 7 21.3843 7 21V17.9961C6.52454 17.9928 6.10885 17.9855 5.74805 17.9561C5.2562 17.9159 4.79892 17.8356 4.36719 17.6504L4.18359 17.5645C3.52513 17.2289 2.97413 16.7183 2.58984 16.0918L2.43555 15.8164C2.18827 15.3311 2.08987 14.814 2.04395 14.252C1.99898 13.7016 2 13.0237 2 12.2002V7.7998C2 6.97632 1.99898 6.29843 2.04395 5.74805C2.08987 5.18599 2.18827 4.6689 2.43555 4.18359L2.58984 3.9082C2.97413 3.2817 3.52512 2.7711 4.18359 2.43555L4.36719 2.34961C4.79892 2.16442 5.2562 2.08414 5.74805 2.04395C6.29843 1.99898 6.97632 2 7.7998 2H16.2002ZM7 11C6.44772 11 6 11.4477 6 12C6 12.5523 6.44772 13 7 13H14C14.5523 13 15 12.5523 15 12C15 11.4477 14.5523 11 14 11H7ZM7 7C6.44772 7 6 7.44772 6 8C6 8.55228 6.44772 9 7 9H17C17.5523 9 18 8.55228 18 8C18 7.44772 17.5523 7 17 7H7Z" fill="currentColor"/>
</g>
</svg>
