<svg preserveAspectRatio="none" width="100%" height="100%" overflow="visible" style="display: block;" viewBox="0 0 24 24" fill="none" xmlns="http://www.w3.org/2000/svg">
<g id="phone/phone-default">
<path id="Vector" d="M8.04598 12.1732C7.64066 12.5488 7.17822 12.9016 6.74569 13.2229C7.76364 14.7374 9.03299 16.0333 10.522 17.0794C10.9612 16.5509 11.4541 15.9669 11.9849 15.4841C13.5426 14.067 15.6954 13.5026 17.7479 13.9733C18.5453 14.1561 19.4954 14.4435 20.2918 14.9792C21.121 15.537 21.8063 16.3839 21.9525 17.6186C22.0115 18.1168 22.0255 18.7127 21.9355 19.2635C21.6259 21.158 19.7857 22.1488 18.1701 21.9581C15.1788 21.605 12.486 20.681 10.1872 19.2543C7.85573 17.8073 5.94468 15.8523 4.54604 13.4822C3.23236 11.2561 2.37804 8.67659 2.04177 5.82633C1.85124 4.21145 2.841 2.37036 4.73589 2.06049C5.2517 1.97614 5.83702 1.99302 6.27746 2.03275C7.44187 2.13777 8.27918 2.7221 8.85271 3.4823C9.40106 4.20911 9.70772 5.09122 9.90462 5.85989C10.4902 8.14596 9.77685 10.5692 8.04598 12.1732Z" fill="currentColor"/>
</g>
</svg>
